<svg xmlns="http://www.w3.org/2000/svg" width="160" height="160" viewBox="0 0 160 160"><defs><linearGradient x1="55.291%" y1="30.24%" x2="5.896%" y2="78.382%" id="prefix__a"><stop stop-color="#29CDFF" offset="0%"/><stop stop-color="#148EFF" offset="36.245%"/><stop stop-color="#0A60FF" offset="100%"/></linearGradient><linearGradient x1="87.379%" y1="27.849%" x2="25.826%" y2="80.205%" id="prefix__b"><stop stop-color="#FA816E" offset="0%"/><stop stop-color="#F74A5C" offset="48.012%"/><stop stop-color="#F51D2C" offset="100%"/><stop stop-color="#F51D2C" offset="100%"/><stop stop-color="#F51D2C" offset="100%"/></linearGradient><linearGradient x1="50%" y1="-22.998%" x2="50%" y2="100%" id="prefix__c"><stop stop-color="#FA8E7D" offset="0%"/><stop stop-color="#F74A5C" offset="49.634%"/><stop stop-color="#F51D2C" offset="100%"/></linearGradient><linearGradient x1="50%" y1="0%" x2="32.825%" y2="116.816%" id="prefix__d"><stop stop-color="#4285EB" offset="0%"/><stop stop-color="#2EC7FF" offset="100%"/></linearGradient></defs><g fill="none" fill-rule="evenodd"><path d="M0 0h160v160H0z"/><path d="M47.549 2.321c7.781-4.478 17.72-1.8 22.197 5.982l40.265 69.972a9.109 9.109 0 01-3.338 12.43 8.996 8.996 0 01-12.29-3.29L58.149 24.697a3.048 3.048 0 00-5.279.002L16.587 87.57a8.856 8.856 0 01-12.164 3.202 9.028 9.028 0 01-3.242-12.28L41.567 8.302a16.256 16.256 0 015.982-5.982z" fill="url(#prefix__a)" transform="translate(4 34)"/><path d="M108.144 4.517l.01.017 27.538 47.502a9.144 9.144 0 01-3.301 12.483 9.088 9.088 0 01-12.445-3.291L92.405 13.71a9.134 9.134 0 013.304-12.472 9.093 9.093 0 0112.435 3.28z" fill="url(#prefix__b)" transform="translate(4 34)"/><path d="M142.907 91.723c5.022 0 9.093-4.063 9.093-9.076 0-5.013-4.07-9.076-9.093-9.076-5.021 0-9.092 4.063-9.092 9.076 0 5.013 4.07 9.076 9.092 9.076z" fill="url(#prefix__c)" transform="translate(4 34)"/><path d="M65.567 14.707c5.04 0 8.81 1.958 11.307 5.874l33.137 57.681a9.105 9.105 0 01-3.353 12.427 9.012 9.012 0 01-12.307-3.316L63.435 33.645l-5.3-8.96a3.048 3.048 0 00-5.283.062l-.04.07c3.462-6.74 7.713-10.11 12.755-10.11z" fill="url(#prefix__d)" transform="translate(4 34)"/></g></svg>